<svg width="640" height="480" xmlns="http://www.w3.org/2000/svg">
 <!-- Created with SVG-edit - http://svg-edit.googlecode.com/ -->
 <g>
  <title>Layer 1</title>
  <path id="svg_66" d="m482,101l42,51l46,-50l-48,-53l-40,52z" stroke-width="5" stroke="#000000" fill="#00FFFF"/>
  <path id="svg_67" d="m359,217l42,51l46,-50l-48,-53l-40,52z" stroke-width="5" stroke="#000000" fill="#00FFFF"/>
  <path id="svg_68" d="m269,337l42,51l46,-50l-48,-53l-40,52z" stroke-width="5" stroke="#000000" fill="#00FFFF"/>
  <line id="svg_85" y2="60" x2="389" y1="62" x1="300" stroke-width="5" stroke="#000000" fill="none"/>
  <line id="svg_86" y2="453" x2="358" y1="452" x1="283" stroke-width="5" stroke="#000000" fill="none"/>
  <ellipse ry="26" rx="73" id="svg_87" cy="47" cx="89" stroke-width="5" stroke="#000000" fill="#00FFFF"/>
  <ellipse ry="23" rx="84" id="svg_88" cy="101" cx="120" stroke-width="5" stroke="#000000" fill="#00FFFF"/>
  <ellipse ry="23" rx="61" id="svg_89" cy="168" cx="176" stroke-width="5" stroke="#000000" fill="#00FFFF"/>
  <ellipse ry="23" rx="63" id="svg_90" cy="226" cx="194" stroke-width="5" stroke="#000000" fill="#00FFFF"/>
  <ellipse ry="19" rx="47" id="svg_91" cy="236" cx="70" stroke-width="5" stroke="#000000" fill="#00FFFF"/>
  <ellipse ry="24" rx="49" id="svg_92" cy="322" cx="95" stroke-width="5" stroke="#000000" fill="#00FFFF"/>
  <ellipse ry="27" rx="40" id="svg_93" cy="285" cx="503" stroke-width="5" stroke="#000000" fill="#00FFFF"/>
  <ellipse ry="28" rx="47" id="svg_94" cy="336" cx="571" stroke-width="5" stroke="#000000" fill="#00FFFF"/>
  <ellipse ry="33" rx="64" id="svg_95" cy="397" cx="489" stroke-width="5" stroke="#000000" fill="#00FFFF"/>
  <ellipse ry="29" rx="80" id="svg_107" cy="203" cx="553" stroke-width="5" stroke="#000000" fill="#00FFFF"/>
  <line id="svg_96" y2="79" x2="484" y1="48" x1="401" stroke-width="5" stroke="#000000" fill="none"/>
  <line id="svg_97" y2="54" x2="163" y1="131" x1="502" stroke-width="5" stroke="#000000" fill="none"/>
  <line id="svg_98" y2="102" x2="207" y1="141" x1="510" stroke-width="5" stroke="#000000" fill="none"/>
  <line id="svg_99" y2="149" x2="512" y1="166" x1="241" stroke-width="5" stroke="#000000" fill="none"/>
  <line id="svg_100" y2="188" x2="433" y1="154" x1="517" stroke-width="5" stroke="#000000" fill="none"/>
  <line id="svg_101" y2="228" x2="261" y1="232" x1="366" stroke-width="5" stroke="#000000" fill="none"/>
  <line id="svg_102" y2="274" x2="464" y1="250" x1="422" stroke-width="5" stroke="#000000" fill="none"/>
  <line id="svg_103" y2="317" x2="534" y1="306" x1="528" stroke-width="5" stroke="#000000" fill="none"/>
  <line id="svg_104" y2="309" x2="550" y1="294" x1="540" stroke-width="5" stroke="#000000" fill="none"/>
  <line id="svg_105" y2="360" x2="481" y1="311" x1="486" stroke-width="5" stroke="#000000" fill="none"/>
  <line id="svg_106" y2="312" x2="492" y1="362" x1="488" stroke-width="5" stroke="#000000" fill="none"/>
  <line id="svg_109" y2="229" x2="521" y1="256" x1="517" stroke-width="5" stroke="#000000" fill="none"/>
  <line id="svg_110" y2="258" x2="523" y1="233" x1="526" stroke-width="5" stroke="#000000" fill="none"/>
  <line id="svg_111" y2="232" x2="566" y1="305" x1="571" stroke-width="5" stroke="#000000" fill="none"/>
  <line id="svg_112" y2="305" x2="578" y1="235" x1="574" stroke-width="5" stroke="#000000" fill="none"/>
  <line id="svg_113" y2="336" x2="623" y1="225" x1="607" stroke-width="5" stroke="#000000" fill="none"/>
  <line id="svg_114" y2="382" x2="601" y1="335" x1="623" stroke-width="5" stroke="#000000" fill="none"/>
  <line id="svg_115" y2="388" x2="550" y1="382" x1="601" stroke-width="5" stroke="#000000" fill="none"/>
  <line id="svg_116" y2="391" x2="605" y1="396" x1="554" stroke-width="5" stroke="#000000" fill="none"/>
  <line id="svg_117" y2="334" x2="633" y1="391" x1="605" stroke-width="5" stroke="#000000" fill="none"/>
  <line id="svg_118" y2="221" x2="614" y1="334" x1="633" stroke-width="5" stroke="#000000" fill="none"/>
  <line id="svg_119" y2="37" x2="196" y1="191" x1="480" stroke-width="5" stroke="#000000" fill="none"/>
  <line id="svg_120" y2="38" x2="159" y1="37" x1="196" stroke-width="5" stroke="#000000" fill="none"/>
  <line id="svg_121" y2="257" x2="75" y1="297" x1="81" stroke-width="5" stroke="#000000" fill="none"/>
  <line id="svg_122" y2="229" x2="115" y1="227" x1="132" stroke-width="5" stroke="#000000" fill="none"/>
  <line id="svg_123" y2="181" x2="127" y1="215" x1="80" stroke-width="5" stroke="#000000" fill="none"/>
  <line id="svg_124" y2="283" x2="305" y1="178" x1="233" stroke-width="5" stroke="#000000" fill="none"/>
  <line id="svg_125" y2="421" x2="324" y1="370" x1="326" stroke-width="5" stroke="#000000" fill="none"/>
  <line id="svg_126" y2="323" x2="143" y1="362" x1="291" stroke-width="5" stroke="#000000" fill="none"/>
  <line id="svg_127" y2="87" x2="49" y1="69" x1="49" stroke-width="5" stroke="#000000" fill="none"/>
  <line id="svg_128" y2="217" x2="36" y1="59" x1="24" stroke-width="5" stroke="#000000" fill="none"/>
  <text xml:space="preserve" text-anchor="middle" font-family="serif" font-size="24" id="svg_69" y="92" x="524" stroke-width="0" stroke="#000000" fill="#000000">check</text>
  <text xml:space="preserve" text-anchor="middle" font-family="serif" font-size="24" id="svg_70" y="116" x="528" stroke-width="0" stroke="#000000" fill="#000000">localStorage</text>
  <text xml:space="preserve" text-anchor="middle" font-family="serif" font-size="24" id="svg_71" y="48" x="344" stroke-width="0" stroke="#000000" fill="#000000">pageload</text>
  <text xml:space="preserve" text-anchor="middle" font-family="serif" font-size="24" id="svg_72" y="211" x="405" stroke-width="0" stroke="#000000" fill="#000000">harvest</text>
  <text xml:space="preserve" text-anchor="middle" font-family="serif" font-size="24" id="svg_73" y="237" x="404" stroke-width="0" stroke="#000000" fill="#000000">token</text>
  <text xml:space="preserve" text-anchor="middle" font-family="serif" font-size="24" id="svg_74" y="343" x="311" stroke-width="0" stroke="#000000" fill="#000000">discover</text>
  <text xml:space="preserve" text-anchor="middle" font-family="serif" font-size="24" id="svg_75" y="446" x="321" stroke-width="0" stroke="#000000" fill="#000000">redirect</text>
  <text xml:space="preserve" text-anchor="middle" font-family="serif" font-size="24" id="svg_76" y="331" x="99" stroke-width="0" stroke="#000000" fill="#000000">failed</text>
  <text xml:space="preserve" text-anchor="middle" font-family="serif" font-size="24" id="svg_77" y="242" x="70" stroke-width="0" stroke="#000000" fill="#000000">typing</text>
  <text xml:space="preserve" text-anchor="middle" font-family="serif" font-size="24" id="svg_78" y="170" x="178" stroke-width="0" stroke="#000000" fill="#000000">connecting</text>
  <text xml:space="preserve" text-anchor="middle" font-family="serif" font-size="24" id="svg_79" y="112" x="119" stroke-width="0" stroke="#000000" fill="#000000">registering</text>
  <text xml:space="preserve" text-anchor="middle" font-family="serif" font-size="24" id="svg_80" y="52" x="84" stroke-width="0" stroke="#000000" fill="#000000">anonymous</text>
  <text xml:space="preserve" text-anchor="middle" font-family="serif" font-size="24" id="svg_81" y="234" x="194" stroke-width="0" stroke="#000000" fill="#000000">interrupted</text>
  <text xml:space="preserve" text-anchor="middle" font-family="serif" font-size="24" id="svg_82" y="291" x="503" stroke-width="0" stroke="#000000" fill="#000000">busy</text>
  <text xml:space="preserve" text-anchor="middle" font-family="serif" font-size="24" id="svg_83" y="408" x="487" stroke-width="0" stroke="#000000" fill="#000000">connected</text>
  <text xml:space="preserve" text-anchor="middle" font-family="serif" font-size="24" id="svg_84" y="344" x="570" stroke-width="0" stroke="#000000" fill="#000000">offline</text>
  <text xml:space="preserve" text-anchor="middle" font-family="serif" font-size="24" id="svg_108" y="209" x="552" stroke-width="0" stroke="#000000" fill="#000000">disconnect?</text>
 </g>
</svg>
