<?xml version="1.0" encoding="UTF-8" standalone="no"?>
<svg xmlns:rdf="http://www.w3.org/1999/02/22-rdf-syntax-ns#" xmlns="http://www.w3.org/2000/svg" height="14" width="25.177" version="1.1" xmlns:cc="http://creativecommons.org/ns#" xmlns:dc="http://purl.org/dc/elements/1.1/">
 <path d="m25.177 5.5323c-0.0564-0.11291-0.0564-0.22581-0.16936-0.33871-0.1129-0.1129-0.28225-0.16936-0.39516-0.16936h-11.403c-0.733-2.879-3.3864-5.0242-6.4913-5.0242-3.6693 0-6.7177 3.0484-6.7177 6.7177 0 3.7263 3.0484 6.7173 6.7177 6.7173 3.3307 0 6.0403-2.4274 6.6048-5.5887h2.5403v3.6694c0 0.28226 0.28226 0.50806 0.56452 0.50806h1.75c0.28226 0 0.56452-0.2258 0.56452-0.50806v-3.6694h1.4677v5.6452c0 0.28225 0.2258 0.50806 0.50806 0.50806h1.8064c0.28226 0 0.50807-0.22581 0.56452-0.50806v-5.6452h1.5242c0.11291 0 0.28226 0 0.39516-0.1129 0.11291-0.1129 0.16936-0.28226 0.16936-0.39516v-1.8064zm-18.459 5.0807c-2.0887 0-3.8387-1.6936-3.8387-3.8387 0-2.1452 1.75-3.8387 3.8387-3.8387 2.1452 0 3.8387 1.6936 3.8387 3.8387 0 2.1452-1.6936 3.8387-3.8387 3.8387z" fill="#fff"/>
</svg>
