<?xml version="1.0" encoding="UTF-8" standalone="no"?>
<svg xmlns:rdf="http://www.w3.org/1999/02/22-rdf-syntax-ns#" xmlns="http://www.w3.org/2000/svg" height="16" width="16" version="1.1" xmlns:cc="http://creativecommons.org/ns#" xmlns:dc="http://purl.org/dc/elements/1.1/">
 <path d="m 13.203124,11.773438 c 0.28125,0.28125 0.421875,0.609375 0.421875,1.03125 0,0.375 -0.140625,0.75 -0.421875,1.03125 -0.28125,0.234375 -0.609375,0.375 -1.03125,0.375 -0.375,0 -0.75,-0.140625 -1.03125,-0.375 0,0 -3.1874981,-3.65625 -3.1874981,-3.65625 0,0 -3.140625,3.65625 -3.140625,3.65625 -0.28125,0.234375 -0.65625,0.375 -1.03125,0.375 -0.421875,0 -0.75,-0.140625 -1.03125,-0.375 -0.28125,-0.28125 -0.375,-0.65625 -0.375,-1.03125 0,-0.421875 0.09375,-0.75 0.375,-1.03125 0,0 3.328125,-3.7500005 3.328125,-3.7500005 0,0 -3.328125,-3.796875 -3.328125,-3.796875 -0.28125,-0.28125 -0.375,-0.609375 -0.375,-1.03125 0,-0.375 0.09375,-0.75 0.375,-1.03125 0.28125,-0.234375 0.609375,-0.375 1.03125,-0.375 0.375,0 0.75,0.140625 1.03125,0.375 0,0 3.140625,3.65625 3.140625,3.65625 0,0 3.1874981,-3.65625 3.1874981,-3.65625 0.28125,-0.234375 0.65625,-0.375 1.03125,-0.375 0.421875,0 0.75,0.140625 1.03125,0.375 0.28125,0.28125 0.421875,0.65625 0.421875,1.03125 0,0.421875 -0.140625,0.75 -0.421875,1.03125 0,0 -3.3281231,3.796875 -3.3281231,3.796875 0,0 3.3281231,3.7500005 3.3281231,3.7500005" fill="#fff"/>
</svg>
