<?xml version="1.0" encoding="UTF-8" standalone="no"?>
<svg xmlns:rdf="http://www.w3.org/1999/02/22-rdf-syntax-ns#" xmlns="http://www.w3.org/2000/svg" height="32" width="32" version="1.1" xmlns:cc="http://creativecommons.org/ns#" xmlns:xlink="http://www.w3.org/1999/xlink" xmlns:dc="http://purl.org/dc/elements/1.1/">
 <defs>
  <radialGradient id="a" gradientUnits="userSpaceOnUse" cy="571.42" cx="1046.5" gradientTransform="matrix(.14433 0 0 .16667 1201.5 877.11)" r="96">
   <stop stop-color="#ff4a04" stop-opacity=".76154" offset="0"/>
   <stop stop-color="#ff4a04" offset="1"/>
  </radialGradient>
 </defs>
 <path style="color:#000000" d="m16 0l0.125 6.375c2.098 0.067 3.75 1.7595 3.75 3.875v1.969h1.937 0.032l8-4.219-13.844-8zl-13.844 8 8 4.219h0.032 1.906v-1.969c0-2.1155 1.683-3.808 3.781-3.875l0.125-6.375zm-13.844 8v16l7.9998-4.844v-6.094l-7.9998-5.062zm0 16l13.844 8-0.375-10.062h-5.469v-2.344l-7.9998 4.406zm13.844 8l13.844-8-8-4.406v2.344h-5.469l-0.375 10.062zm13.844-8v-16l-8 5.062v6.094l8 4.844zm-13.969-17c-1.735 0.0666-3.125 1.4987-3.125 3.25v1.969h3.031l0.094-5.219zm0.25 0l0.094 5.219h3.031v-1.969c0-1.7513-1.39-3.1834-3.125-3.25zm-4.75 5.844l4.344 2.281 0.031-2.281h-4.375zm4.875 0l0.031 2.281 4.344-2.281h-4.375zm-5.438 0.625v5.312l4.282-2.593-4.282-2.719zm10.376 0l-4.282 2.719 4.282 2.593v-5.312zm-5.782 3.219l-4.594 2.531v2.062h4.782l-0.188-4.593zm1.188 0l-0.188 4.593h4.782v-2.062l-4.594-2.531z" fill="url(#a)"/>
</svg>
