<?xml version="1.0" encoding="UTF-8" standalone="no"?>
<svg xmlns:rdf="http://www.w3.org/1999/02/22-rdf-syntax-ns#" xmlns="http://www.w3.org/2000/svg" enable-background="new 0 0 87.5 100" xml:space="preserve" height="16" viewBox="0 0 15.999999 16" width="16" version="1.1" y="0px" x="0px" xmlns:cc="http://creativecommons.org/ns#" xmlns:dc="http://purl.org/dc/elements/1.1/">
<g transform="translate(-5.5112 -76.525)" display="none">
	<path display="inline" d="m51.473 42.255-2.205 2.212c1.478 1.477 2.295 3.442 2.295 5.533 0 4.309-3.504 7.812-7.812 7.812v-1.562l-3.125 3.125 3.124 3.125v-1.562c6.029 0 10.938-4.906 10.938-10.938 0-2.927-1.141-5.676-3.215-7.745z"/>
	<path display="inline" d="m46.875 40.625-3.125-3.125v1.562c-6.03 0-10.938 4.907-10.938 10.938 0 2.927 1.141 5.676 3.217 7.745l2.203-2.212c-1.477-1.479-2.294-3.442-2.294-5.533 0-4.309 3.504-7.812 7.812-7.812v1.562l3.125-3.125z"/>
</g>
<path fill="#fff" d="m10 0l-0.75 1.9062c-1.0078-0.2942-3.4586-0.7708-5.6562 0.9376 0-0.0002-3.9302 2.5941-2.0938 7.5942l1.6562-0.7192s-1.5399-3.1122 1.6876-5.5313c0 0 1.6957-1.1339 3.6874-0.5937l-0.7187 1.8124 3.8125-1.625-1.625-3.7812z"/><path fill="#fff" d="m14 5.5625l-1.656 0.7187s1.541 3.1135-1.688 5.5308c0 0-1.7272 1.135-3.7185 0.594l0.75-1.812-3.8125 1.594 1.5938 3.812 0.7812-1.906c1.0113 0.295 3.4615 0.766 5.656-0.938 0 0 3.928-2.594 2.094-7.5935z"/>
</svg>
