<?xml version="1.0" encoding="UTF-8" standalone="no"?>
<!-- Created with Inkscape (http://www.inkscape.org/) -->

<svg
   xmlns:dc="http://purl.org/dc/elements/1.1/"
   xmlns:cc="http://creativecommons.org/ns#"
   xmlns:rdf="http://www.w3.org/1999/02/22-rdf-syntax-ns#"
   xmlns:svg="http://www.w3.org/2000/svg"
   xmlns="http://www.w3.org/2000/svg"
   version="1.1"
   width="16"
   height="16"
   viewBox="0 0 15.999999 16"
   id="Layer_1"
   xml:space="preserve"><metadata
   id="metadata3022"><rdf:RDF><cc:Work
       rdf:about=""><dc:format>image/svg+xml</dc:format><dc:type
         rdf:resource="http://purl.org/dc/dcmitype/StillImage" /><dc:title></dc:title></cc:Work></rdf:RDF></metadata><defs
   id="defs3020">
	

		
		
	
			
			
		
			
			
		</defs>
<g
   transform="translate(-5.511177,-76.524997)"
   id="Layer_1_1_"
   style="display:none">
	<path
   d="m 51.473,42.255 -2.205,2.212 c 1.478,1.477 2.295,3.442 2.295,5.533 0,4.309 -3.504,7.812 -7.812,7.812 V 56.25 l -3.125,3.125 3.124,3.125 v -1.562 c 6.029,0 10.938,-4.906 10.938,-10.938 0,-2.927 -1.141,-5.676 -3.215,-7.745 z"
   id="path2998"
   style="fill:#000000;display:inline" />
	<path
   d="M 46.875,40.625 43.75,37.5 v 1.562 c -6.03,0 -10.938,4.907 -10.938,10.938 0,2.927 1.141,5.676 3.217,7.745 l 2.203,-2.212 C 36.755,54.054 35.938,52.091 35.938,50 c 0,-4.309 3.504,-7.812 7.812,-7.812 v 1.562 l 3.125,-3.125 z"
   id="path3000"
   style="fill:#000000;display:inline" />
</g>
<g
   transform="translate(-5.511177,-76.524997)"
   id="Layer_2"
   style="display:none">
</g>
<path
   d="M 10,0 9.25,1.90625 C 8.2422327,1.6119815 5.7914393,1.1354434 3.59375,2.84375 3.59375,2.8435653 -0.33642282,5.4379383 1.5,10.4375 L 3.15625,9.71875 c 0,0 -1.539906,-3.1121729 1.6875,-5.53125 0,0 1.6957886,-1.1338573 3.6875,-0.59375 L 7.8125,5.40625 11.625,3.78125 10,0 z"
   id="path3008"
   style="fill:#ffffff;fill-opacity:1" /><path
   d="m 14,5.5625 -1.65625,0.71875 c 0,0 1.541199,3.1134655 -1.6875,5.53125 0,0 -1.7274336,1.134052 -3.71875,0.59375 l 0.75,-1.8125 L 3.875,12.1875 5.46875,16 6.25,14.09375 c 1.0112518,0.295132 3.4615266,0.766746 5.65625,-0.9375 0,0 3.927957,-2.594188 2.09375,-7.59375 z"
   id="path3014"
   style="fill:#ffffff;fill-opacity:1" />
</svg>